<svg width="53" height="53" viewBox="0 0 53 53" fill="none" xmlns="http://www.w3.org/2000/svg">
<path d="M27.7821 26.7676L25.243 26.7681V29.9562H27.782C28.6609 29.9562 29.3761 29.241 29.3761 28.3619C29.3761 27.9385 29.2096 27.5388 28.9073 27.2364C28.605 26.9341 28.2053 26.7675 27.7821 26.7676Z" fill="#FFBB36"/>
<path d="M28.6886 24.1654C28.6887 23.8298 28.5566 23.5131 28.3168 23.2733C28.0771 23.0335 27.7603 22.9014 27.4248 22.9015H25.243V25.4288H27.4454C28.1327 25.4177 28.6886 24.8554 28.6886 24.1654Z" fill="#FFBB36"/>
<path d="M26.4283 18.7497C22.1943 18.7497 18.7497 22.1943 18.7497 26.4283C18.7497 30.6622 22.1943 34.1068 26.4283 34.1068C30.6622 34.1068 34.1068 30.6622 34.1068 26.4283C34.1068 22.1943 30.6622 18.7497 26.4283 18.7497ZM27.7824 31.2952H27.0979V32.589H25.7586V31.2952H22.8105V29.9559H23.9041V22.9006H22.8105V21.5613H25.7586V20.2676H27.0979V21.5613H27.4251C28.1183 21.5613 28.7715 21.8326 29.2642 22.3254C29.757 22.8182 30.0283 23.4713 30.0283 24.1646C30.0283 24.8286 29.778 25.435 29.3673 25.8954C29.5411 26.0079 29.7047 26.139 29.8547 26.2891C30.41 26.8445 30.7158 27.5805 30.7157 28.3617C30.7157 29.9792 29.3998 31.2952 27.7824 31.2952V31.2952Z" fill="#FFBB36"/>
<path d="M34.5098 18.3473C32.3512 16.1888 29.4813 15 26.4286 15C23.3759 15 20.5059 16.1888 18.3473 18.3473C16.1888 20.5059 15 23.3759 15 26.4286C15 29.4813 16.1888 32.3512 18.3473 34.5098C20.5059 36.6683 23.3759 37.8571 26.4286 37.8571C29.4813 37.8571 32.3512 36.6683 34.5098 34.5098C36.6683 32.3512 37.8571 29.4813 37.8571 26.4286C37.8571 23.3759 36.6683 20.5059 34.5098 18.3473V18.3473ZM26.4286 35.4464C21.4561 35.4464 17.4107 31.401 17.4107 26.4286C17.4107 21.4561 21.4561 17.4107 26.4286 17.4107C31.401 17.4107 35.4464 21.4561 35.4464 26.4286C35.4464 31.401 31.401 35.4464 26.4286 35.4464V35.4464Z" fill="#FFBB36"/>
<circle opacity="0.1" cx="26.2857" cy="26.2857" r="26.2857" fill="#FFBB36"/>
</svg>
