<svg width="17" height="18" viewBox="0 0 17 18" fill="none" xmlns="http://www.w3.org/2000/svg">
<rect width="17" height="18" fill="#1E1E1E"/>
<g id="12 Grids &#226;&#128;&#148; Extra large &#226;&#137;&#165;1200px" clip-path="url(#clip0_0_1)">
<rect width="1444" height="3843" transform="translate(-610 -610.5)" fill="white"/>
<rect id="Rectangle 137" opacity="0.8" width="1472" height="669" transform="matrix(1 0 0 -1 -626 38.5)" fill="url(#paint0_linear_0_1)"/>
<g id="Rectangle 148" opacity="0.8" filter="url(#filter0_f_0_1)">
<rect x="-590" y="-372.979" width="1404" height="585.841" rx="17" fill="url(#paint1_linear_0_1)"/>
</g>
<rect id="Rectangle 149" x="-622" y="-520.5" width="1468" height="754.589" rx="17" fill="url(#paint2_linear_0_1)"/>
<g id="Group 197">
<g id="Group 196">
<g id="Group 173">
<g id="Rectangle 124" opacity="0.7" filter="url(#filter1_f_0_1)">
<rect x="-356" y="-91.5" width="933" height="191.213" fill="white"/>
</g>
<rect id="Rectangle 125" opacity="0.8" x="-442" y="-167.5" width="1105" height="279.648" rx="24" fill="white" stroke="#F7F8FD" stroke-width="4"/>
</g>
<g id="Group 199">
<g id="Group 198">
<g id="Group 192">
</g>
<g id="Group 187">
<g id="Group">
<g id="Group_2">
<g id="Group_3">
<path id="Vector" d="M12.292 7.37702L12.9846 8.06963L16.4231 4.63112C16.6135 4.43952 16.6135 4.13011 16.4231 3.93851L12.9846 0.5L12.292 1.19753L14.8954 3.79606H0.851562V4.77849H14.8954L12.292 7.37702Z" fill="#868DAA"/>
<path id="Vector_2" d="M16.5708 12.772H2.527L5.13044 10.1735L4.43292 9.47595L0.994414 12.9145C0.803945 13.1061 0.803945 13.4155 0.994414 13.6071L4.43292 17.0456L5.12553 16.353L2.527 13.7544H16.5708V12.772Z" fill="#868DAA"/>
</g>
</g>
</g>
</g>
</g>
</g>
</g>
</g>
<g id="Mask Group">
</g>
</g>
<defs>
<filter id="filter0_f_0_1" x="-760" y="-542.979" width="1744" height="925.841" filterUnits="userSpaceOnUse" color-interpolation-filters="sRGB">
<feFlood flood-opacity="0" result="BackgroundImageFix"/>
<feBlend mode="normal" in="SourceGraphic" in2="BackgroundImageFix" result="shape"/>
<feGaussianBlur stdDeviation="85" result="effect1_foregroundBlur_0_1"/>
</filter>
<filter id="filter1_f_0_1" x="-456" y="-191.5" width="1133" height="391.213" filterUnits="userSpaceOnUse" color-interpolation-filters="sRGB">
<feFlood flood-opacity="0" result="BackgroundImageFix"/>
<feBlend mode="normal" in="SourceGraphic" in2="BackgroundImageFix" result="shape"/>
<feGaussianBlur stdDeviation="50" result="effect1_foregroundBlur_0_1"/>
</filter>
<linearGradient id="paint0_linear_0_1" x1="736" y1="0" x2="736" y2="646.037" gradientUnits="userSpaceOnUse">
<stop stop-color="#EFF2FA"/>
<stop offset="1" stop-color="white" stop-opacity="0"/>
</linearGradient>
<linearGradient id="paint1_linear_0_1" x1="-230.091" y1="-180.625" x2="-85.9919" y2="239.593" gradientUnits="userSpaceOnUse">
<stop stop-color="#562EC2"/>
<stop offset="1" stop-color="#A07EFE"/>
</linearGradient>
<linearGradient id="paint2_linear_0_1" x1="-245.685" y1="-272.74" x2="-28.8469" y2="240.567" gradientUnits="userSpaceOnUse">
<stop stop-color="#562EC2"/>
<stop offset="1" stop-color="#A07EFE"/>
</linearGradient>
<clipPath id="clip0_0_1">
<rect width="1444" height="3843" fill="white" transform="translate(-610 -610.5)"/>
</clipPath>
</defs>
</svg>
