<svg width="27" height="27" viewBox="0 0 27 27" fill="none" xmlns="http://www.w3.org/2000/svg">
<g id="facebook 1" clip-path="url(#clip0_2_269)">
<g id="Group">
<path id="Vector" d="M13.5068 26.8807C20.7423 26.8807 26.6078 21.0152 26.6078 13.7798C26.6078 6.54432 20.7423 0.678833 13.5068 0.678833C6.27137 0.678833 0.405884 6.54432 0.405884 13.7798C0.405884 21.0152 6.27137 26.8807 13.5068 26.8807Z" fill="#3B5998"/>
<path id="Vector_2" d="M16.798 14.2941H14.4603V22.8584H10.9185V14.2941H9.23401V11.2843H10.9185V9.33663C10.9185 7.94382 11.5801 5.76282 14.4919 5.76282L17.1154 5.77379V8.69534H15.2118C14.8996 8.69534 14.4606 8.85134 14.4606 9.51575V11.2871H17.1075L16.798 14.2941Z" fill="white"/>
</g>
</g>
<defs>
<clipPath id="clip0_2_269">
<rect width="26.2019" height="26.2019" fill="white" transform="translate(0.402344 0.679688)"/>
</clipPath>
</defs>
</svg>
