<svg width="53" height="53" viewBox="0 0 53 53" fill="none" xmlns="http://www.w3.org/2000/svg">
<circle opacity="0.1" cx="26.2857" cy="26.2857" r="26.2857" fill="#03A9F4"/>
<path d="M31.9609 17.5519C31.0018 16.4654 29.2661 16 27.0456 16H20.6016C20.1478 16 19.7621 16.3279 19.6901 16.7714L17.0068 33.6541C16.9541 33.9871 17.2138 34.288 17.5532 34.288H21.5312L22.5302 28.0009L22.4994 28.1989C22.5701 27.7553 22.9545 27.4274 23.4084 27.4274H25.2984C29.0128 27.4274 31.9198 25.9309 32.7697 21.6019C32.7954 21.4733 32.8352 21.2264 32.8352 21.2264C33.0769 19.6244 32.8339 18.538 31.9609 17.5519Z" fill="#03A9F4"/>
<path d="M33.8428 22.0477C32.9197 26.3099 29.9741 28.565 25.2993 28.565H23.6047L22.3395 36.5724H25.0884C25.4857 36.5724 25.8238 36.2857 25.8855 35.8961L25.9177 35.7264L26.5503 31.7523L26.5914 31.5337C26.6531 31.1441 26.9913 30.8574 27.3873 30.8574H27.89C31.139 30.8574 33.6821 29.5486 34.4253 25.7622C34.7235 24.2424 34.5795 22.9683 33.8428 22.0477Z" fill="#03A9F4"/>
</svg>
