<svg width="53" height="53" viewBox="0 0 53 53" fill="none" xmlns="http://www.w3.org/2000/svg">
<path d="M19.0469 26.3934V29.2589C19.0469 29.878 19.1146 30.2625 19.25 30.4124C19.4338 30.6252 19.7119 30.7316 20.0843 30.7316H20.4615V31H16.2467V30.7316H16.6166C17.0326 30.7316 17.33 30.5962 17.5089 30.3253C17.6057 30.1754 17.654 29.8199 17.654 29.2589V22.904C17.654 22.285 17.5887 21.9005 17.4581 21.7506C17.2695 21.5378 16.989 21.4314 16.6166 21.4314H16.2467V21.1629H19.8521C20.7323 21.1629 21.4263 21.2548 21.9342 21.4386C22.442 21.6176 22.87 21.9222 23.2182 22.3527C23.5664 22.7831 23.7405 23.2933 23.7405 23.8834C23.7405 24.6862 23.4745 25.3391 22.9425 25.8421C22.4154 26.3451 21.6682 26.5965 20.7009 26.5965C20.4639 26.5965 20.2076 26.5796 19.9319 26.5458C19.6562 26.5119 19.3612 26.4611 19.0469 26.3934ZM19.0469 25.9799C19.3032 26.0283 19.5305 26.0645 19.7288 26.0887C19.9271 26.1129 20.0964 26.125 20.2366 26.125C20.7396 26.125 21.1724 25.9315 21.5352 25.5446C21.9027 25.1529 22.0865 24.6475 22.0865 24.0285C22.0865 23.6029 21.9994 23.2087 21.8253 22.846C21.6512 22.4784 21.4046 22.2052 21.0854 22.0262C20.7662 21.8424 20.4035 21.7506 19.9972 21.7506C19.7506 21.7506 19.4338 21.7965 19.0469 21.8884V25.9799ZM30.5722 31L26.7708 22.7227V29.2952C26.7708 29.8997 26.8361 30.277 26.9667 30.4269C27.1457 30.63 27.4286 30.7316 27.8155 30.7316H28.1637V31H24.7396V30.7316H25.0878C25.5037 30.7316 25.7987 30.6058 25.9729 30.3544C26.0793 30.1996 26.1325 29.8465 26.1325 29.2952V22.8677C26.1325 22.4325 26.0841 22.1181 25.9874 21.9247C25.9197 21.7844 25.7939 21.6683 25.6101 21.5765C25.4312 21.4797 25.141 21.4314 24.7396 21.4314V21.1629H27.5253L31.0945 28.8599L34.6057 21.1629H37.3914V21.4314H37.0504C36.6297 21.4314 36.3322 21.5571 36.1581 21.8086C36.0517 21.9634 35.9985 22.3164 35.9985 22.8677V29.2952C35.9985 29.8997 36.0662 30.277 36.2016 30.4269C36.3806 30.63 36.6635 30.7316 37.0504 30.7316H37.3914V31H33.2128V30.7316H33.561C33.9818 30.7316 34.2768 30.6058 34.4461 30.3544C34.5525 30.1996 34.6057 29.8465 34.6057 29.2952V22.7227L30.8116 31H30.5722Z" fill="#DA251C"/>
<circle opacity="0.1" cx="26.2857" cy="26.2857" r="26.2857" fill="#DA251C"/>
</svg>
