<svg width="13" height="9" viewBox="0 0 13 9" fill="none" xmlns="http://www.w3.org/2000/svg">
<path id="Vector" d="M5.87297 8.15418C5.92856 8.22268 6.00295 8.27869 6.08973 8.31738C6.1765 8.35607 6.27306 8.37629 6.37109 8.37629C6.46912 8.37629 6.56568 8.35607 6.65246 8.31738C6.73923 8.27869 6.81362 8.22268 6.86921 8.15418L12.3231 1.47092C12.3862 1.39384 12.4233 1.30355 12.4302 1.20987C12.437 1.11619 12.4135 1.0227 12.3622 0.939551C12.3108 0.856406 12.2336 0.786789 12.1389 0.738264C12.0442 0.689738 11.9356 0.664159 11.825 0.664307H0.917193C0.806808 0.664694 0.698636 0.690602 0.604309 0.739244C0.509982 0.787885 0.43307 0.857421 0.381843 0.940374C0.330617 1.02333 0.307014 1.11656 0.313573 1.21004C0.320132 1.30352 0.356605 1.39371 0.41907 1.47092L5.87297 8.15418Z" fill="#4E5983"/>
</svg>
