<svg width="27" height="27" viewBox="0 0 27 27" fill="none" xmlns="http://www.w3.org/2000/svg">
<g id="vk (2) 1" clip-path="url(#clip0_2_276)">
<g id="Group">
<g id="Group_2">
<path id="XMLID 11" d="M13.1009 26.8813C20.3364 26.8813 26.2019 21.0158 26.2019 13.7804C26.2019 6.54493 20.3364 0.679443 13.1009 0.679443C5.86549 0.679443 0 6.54493 0 13.7804C0 21.0158 5.86549 26.8813 13.1009 26.8813Z" fill="#4D76A1"/>
</g>
<path id="Vector" fill-rule="evenodd" clip-rule="evenodd" d="M12.6084 19.5267H13.6367C13.6367 19.5267 13.9473 19.4926 14.1058 19.3217C14.2518 19.1647 14.2471 18.87 14.2471 18.87C14.2471 18.87 14.227 17.4903 14.8674 17.2871C15.4986 17.087 16.3093 18.6206 17.1684 19.2103C17.8181 19.6566 18.3118 19.5587 18.3118 19.5587L20.6091 19.5267C20.6091 19.5267 21.8109 19.4527 21.2411 18.5078C21.1944 18.4305 20.9092 17.8088 19.533 16.5314C18.0925 15.1944 18.2854 15.4106 20.0206 13.0979C21.0774 11.6895 21.4998 10.8296 21.3679 10.4613C21.242 10.1105 20.4648 10.2032 20.4648 10.2032L17.8782 10.2194C17.8782 10.2194 17.6864 10.1932 17.5442 10.2782C17.4052 10.3616 17.3158 10.5559 17.3158 10.5559C17.3158 10.5559 16.9064 11.6458 16.3604 12.5727C15.2086 14.5286 14.7481 14.6318 14.5598 14.5104C14.122 14.2273 14.2312 13.3733 14.2312 12.7665C14.2312 10.8712 14.5187 10.0809 13.6715 9.8763C13.3903 9.80834 13.1834 9.7635 12.4643 9.75626C11.5414 9.74668 10.7602 9.75906 10.3179 9.97578C10.0236 10.1199 9.79662 10.441 9.93487 10.4594C10.1058 10.4823 10.493 10.5638 10.6983 10.8434C10.9634 11.204 10.954 12.0139 10.954 12.0139C10.954 12.0139 11.1063 14.2451 10.5984 14.5223C10.2497 14.7124 9.7714 14.3242 8.74454 12.5498C8.21838 11.6409 7.82113 10.6362 7.82113 10.6362C7.82113 10.6362 7.74453 10.4485 7.60791 10.348C7.4421 10.2264 7.21043 10.1876 7.21043 10.1876L4.75246 10.2037C4.75246 10.2037 4.38347 10.214 4.24802 10.3744C4.12752 10.5171 4.23845 10.8123 4.23845 10.8123C4.23845 10.8123 6.16279 15.3144 8.34169 17.5832C10.3396 19.6634 12.6084 19.5267 12.6084 19.5267Z" fill="white"/>
</g>
</g>
<defs>
<clipPath id="clip0_2_276">
<rect width="26.2019" height="26.2019" fill="white" transform="translate(0 0.679443)"/>
</clipPath>
</defs>
</svg>
